<svg width="80" height="80" viewBox="0 0 80 80" fill="none" xmlns="http://www.w3.org/2000/svg">
<path opacity="0.4" d="M56.6666 40C56.6666 49.2047 49.2046 56.6667 40 56.6667C30.7952 56.6667 23.3333 49.2047 23.3333 40C23.3333 30.7953 30.7952 23.3333 40 23.3333C49.2046 23.3333 56.6666 30.7953 56.6666 40Z" fill="#FF8000"/>
<path d="M56.6666 40C56.6666 49.2047 49.2046 56.6667 40 56.6667C30.7952 56.6667 23.3333 49.2047 23.3333 40C23.3333 30.7953 30.7952 23.3333 40 23.3333C49.2046 23.3333 56.6666 30.7953 56.6666 40Z" stroke="#FF8000" stroke-width="2"/>
<path d="M40 6.66667V11.6667M40 68.3333V73.3333M63.5694 63.571L60.0337 60.0353M19.9642 19.9642L16.4287 16.4287M73.3334 40H68.3334M11.6667 40H6.66669M63.571 16.429L60.0353 19.9646M19.9659 60.0357L16.4303 63.5713" stroke="#FF8000" stroke-width="2" stroke-linecap="round"/>
</svg>
