<svg width="80" height="80" viewBox="0 0 80 80" fill="none" xmlns="http://www.w3.org/2000/svg">
<path opacity="0.4" d="M71.6666 46.928C67.6676 49.063 63.1003 50.2737 58.2503 50.2737C42.497 50.2737 29.7264 37.503 29.7264 21.7495C29.7264 16.8995 30.9368 12.3323 33.0721 8.33333C18.8921 11.6566 8.33331 24.3838 8.33331 39.577C8.33331 57.2997 22.7003 71.6667 40.423 71.6667C55.6163 71.6667 68.3433 61.108 71.6666 46.928Z" fill="#66B1F2"/>
<path d="M71.6666 46.928C67.6676 49.063 63.1003 50.2737 58.2503 50.2737C42.497 50.2737 29.7264 37.503 29.7264 21.7495C29.7264 16.8995 30.9368 12.3323 33.0721 8.33333C18.8921 11.6566 8.33331 24.3838 8.33331 39.577C8.33331 57.2997 22.7003 71.6667 40.423 71.6667C55.6163 71.6667 68.3433 61.108 71.6666 46.928Z" stroke="#66B1F2" stroke-width="2" stroke-linecap="round" stroke-linejoin="round"/>
</svg>
