<svg width="80" height="80" viewBox="0 0 80 80" fill="none" xmlns="http://www.w3.org/2000/svg">
<path opacity="0.4" d="M58.3334 38.3333C58.3334 28.2081 50.1254 20 40 20C30.4108 20 22.5411 27.3621 21.7348 36.7423C13.28 37.547 6.66669 44.6677 6.66669 53.3333C6.66669 62.538 14.1286 70 23.3334 70H58.3334C66.6177 70 73.3334 63.2843 73.3334 55C73.3334 46.7157 66.6177 40 58.3334 40L58.2587 40.0003C58.308 39.4513 58.3334 38.8953 58.3334 38.3333Z" fill="#FF8000"/>
<path d="M58.2587 40.0003C58.2834 40 58.3084 40 58.3334 40C66.6177 40 73.3334 46.7157 73.3334 55C73.3334 63.2843 66.6177 70 58.3334 70H23.3334C14.1286 70 6.66669 62.538 6.66669 53.3333C6.66669 44.6677 13.28 37.547 21.7348 36.7423M58.2587 40.0003C58.308 39.4513 58.3334 38.8953 58.3334 38.3333C58.3334 28.2081 50.1254 20 40 20C30.4108 20 22.5411 27.3621 21.7348 36.7423M58.2587 40.0003C57.9177 43.7817 56.4287 47.232 54.1427 50M21.7348 36.7423C22.2609 36.6923 22.7941 36.6667 23.3334 36.6667C27.0861 36.6667 30.5492 37.907 33.335 40" stroke="#FF8000" stroke-width="2" stroke-linecap="round" stroke-linejoin="round"/>
<path d="M9.86465 33.979C7.39552 24.906 12.8641 15.5799 22.079 13.1488M9.86465 33.979L6.66669 34.8227M9.86465 33.979C10.4787 36.2353 11.5257 38.2633 12.8941 40M22.079 13.1488L21.2221 10M22.079 13.1488C28.8891 11.3521 35.8394 13.824 40 18.8987M11.5884 21.0766L8.21469 19.1543M37.1357 11.5242L35.19 14.8498" stroke="#FF8000" stroke-width="2" stroke-linecap="round"/>
</svg>
