<svg width="80" height="80" viewBox="0 0 80 80" fill="none" xmlns="http://www.w3.org/2000/svg">
<path opacity="0.4" d="M58.3334 38.3333C58.3334 28.2081 50.1254 20 40 20C30.4108 20 22.5411 27.3621 21.7348 36.7423C13.28 37.547 6.66669 44.6677 6.66669 53.3333C6.66669 62.538 14.1286 70 23.3334 70H58.3334C66.6177 70 73.3334 63.2843 73.3334 55C73.3334 46.7157 66.6177 40 58.3334 40L58.2587 40.0003C58.308 39.4513 58.3334 38.8953 58.3334 38.3333Z" fill="#66B1F2"/>
<path d="M58.2587 40.0003C58.2834 40 58.3084 40 58.3334 40C66.6177 40 73.3334 46.7157 73.3334 55C73.3334 63.2843 66.6177 70 58.3334 70H23.3334C14.1286 70 6.66669 62.538 6.66669 53.3333C6.66669 44.6677 13.28 37.547 21.7348 36.7423M58.2587 40.0003C58.308 39.4513 58.3334 38.8953 58.3334 38.3333C58.3334 28.2081 50.1254 20 40 20C30.4108 20 22.5411 27.3621 21.7348 36.7423M58.2587 40.0003C57.9177 43.7817 56.4287 47.232 54.1427 50M21.7348 36.7423C22.2609 36.6923 22.7941 36.6667 23.3334 36.6667C27.0861 36.6667 30.5492 37.907 33.335 40" stroke="#66B1F2" stroke-width="2" stroke-linecap="round" stroke-linejoin="round"/>
<path d="M36.6667 18.4353C36.3537 16.8235 35.776 15.2357 34.9174 13.7338C32.8644 10.1431 29.5868 7.71157 25.9249 6.66667C26.4908 11.2655 24.3496 15.9724 20.1253 18.4353C15.9011 20.8981 10.7938 20.4172 7.13282 17.6229C6.19799 21.3478 6.64442 25.43 8.69735 29.0207C11.4736 33.8763 16.4895 36.613 21.6667 36.6667" stroke="#66B1F2" stroke-width="2" stroke-linejoin="round"/>
</svg>
