<svg width="80" height="80" viewBox="0 0 80 80" fill="none" xmlns="http://www.w3.org/2000/svg">
<path opacity="0.4" d="M58.3334 31.6667C58.3334 21.5414 50.1254 13.3333 40 13.3333C30.4108 13.3333 22.5411 20.6954 21.7348 30.0757C13.28 30.8802 6.66669 38.001 6.66669 46.6667C6.66669 55.8713 14.1286 63.3333 23.3334 63.3333H58.3334C66.6177 63.3333 73.3334 56.6177 73.3334 48.3333C73.3334 40.049 66.6177 33.3333 58.3334 33.3333L58.2587 33.3337C58.308 32.7845 58.3334 32.2285 58.3334 31.6667Z" fill="#FF8000"/>
<path d="M58.2587 33.3337C58.2834 33.3333 58.3084 33.3333 58.3334 33.3333C66.6177 33.3333 73.3334 40.049 73.3334 48.3333C73.3334 56.6177 66.6177 63.3333 58.3334 63.3333H23.3334C14.1286 63.3333 6.66669 55.8713 6.66669 46.6667C6.66669 38.001 13.28 30.8802 21.7348 30.0757M58.2587 33.3337C58.308 32.7845 58.3334 32.2285 58.3334 31.6667C58.3334 21.5414 50.1254 13.3333 40 13.3333C30.4108 13.3333 22.5411 20.6954 21.7348 30.0757M58.2587 33.3337C57.9177 37.115 56.4287 40.5653 54.1427 43.3333M21.7348 30.0757C22.2609 30.0256 22.7941 30 23.3334 30C27.0861 30 30.5492 31.2403 33.335 33.3333" stroke="#FF8000" stroke-width="2" stroke-linecap="round" stroke-linejoin="round"/>
</svg>
