<svg width="80" height="80" viewBox="0 0 80 80" fill="none" xmlns="http://www.w3.org/2000/svg">
<path opacity="0.4" d="M58.3334 28.3333C58.3334 18.2081 50.1254 10 40 10C30.4108 10 22.5411 17.3621 21.7348 26.7423C13.28 27.5469 6.66669 34.6677 6.66669 43.3333C6.66669 52.538 14.1286 60 23.3334 60H58.3334C66.6177 60 73.3334 53.2843 73.3334 45C73.3334 36.7157 66.6177 30 58.3334 30L58.2587 30.0002C58.308 29.4512 58.3334 28.8952 58.3334 28.3333Z" fill="#66B1F2"/>
<path d="M26.6667 55.5263L27.7557 54.6667C30.0079 52.889 32.6589 52.889 34.911 54.6667L35.7557 55.3333C38.008 57.111 40.6587 57.111 42.911 55.3333L43.7557 54.6667C46.008 52.889 48.6587 52.889 50.911 54.6667L51.7557 55.3333C52.264 55.7347 52.7927 56.0453 53.3327 56.2653M46.6667 68.6667L47.5644 68C49.9584 66.2223 52.776 66.2223 55.1697 68L56.0674 68.6667C58.4614 70.4443 61.279 70.4443 63.6727 68.6667L64.5707 68C66.9644 66.2223 69.782 66.2223 72.176 68L73.3334 68.8597M33.3334 68.6667L32.4357 68C30.0418 66.2223 27.2241 66.2223 24.8303 68L23.9326 68.6667C21.5387 70.4443 18.7211 70.4443 16.3272 68.6667L15.4295 68C13.0357 66.2223 10.218 66.2223 7.82412 68L6.66669 68.8597" stroke="#66B1F2" stroke-width="2" stroke-linecap="round" stroke-linejoin="round"/>
<path d="M58.2587 29.66L58.3334 29.6598C66.6177 29.6598 73.3334 36.2613 73.3334 44.4047C73.3334 49.517 70.6867 54.0217 66.6667 56.6667M58.2587 29.66C58.308 29.1204 58.3334 28.5739 58.3334 28.0215C58.3334 18.0685 50.1254 10 40 10C30.4108 10 22.5411 17.2369 21.7348 26.4576M58.2587 29.66C57.9177 33.3773 56.4287 36.769 54.1427 39.4897M21.7348 26.4576C13.28 27.2485 6.66669 34.2483 6.66669 42.7663C6.66669 48.126 9.28552 52.884 13.3334 55.873M21.7348 26.4576C22.2609 26.4084 22.7941 26.3832 23.3334 26.3832C27.0861 26.3832 30.5492 27.6024 33.335 29.6598" stroke="#66B1F2" stroke-width="2" stroke-linecap="round" stroke-linejoin="round"/>
</svg>
