<svg width="80" height="80" viewBox="0 0 80 80" fill="none" xmlns="http://www.w3.org/2000/svg">
<path opacity="0.4" d="M58.3334 28.3333C58.3334 18.2081 50.1254 10 40 10C30.4108 10 22.5411 17.3621 21.7348 26.7423C13.28 27.5469 6.66669 34.6677 6.66669 43.3333C6.66669 52.538 14.1286 60 23.3334 60H58.3334C66.6177 60 73.3334 53.2843 73.3334 45C73.3334 36.7157 66.6177 30 58.3334 30L58.2587 30.0002C58.308 29.4512 58.3334 28.8952 58.3334 28.3333Z" fill="#FF8000"/>
<path d="M40.0037 45V50M30 55V60M50 55V60M21.6667 65V70M58.3334 65V70M40 65V70" stroke="#FF8000" stroke-width="2" stroke-linecap="round"/>
<path d="M58.2587 29.66L58.3334 29.6598C66.6177 29.6598 73.3334 36.2613 73.3334 44.4047C73.3334 49.517 70.6867 54.0217 66.6667 56.6667M58.2587 29.66C58.308 29.1204 58.3334 28.5739 58.3334 28.0215C58.3334 18.0685 50.1254 10 40 10C30.4108 10 22.5411 17.2369 21.7348 26.4576M58.2587 29.66C57.9177 33.3773 56.4287 36.769 54.1427 39.4897M21.7348 26.4576C13.28 27.2485 6.66669 34.2483 6.66669 42.7663C6.66669 48.126 9.28552 52.884 13.3334 55.873M21.7348 26.4576C22.2609 26.4084 22.7941 26.3832 23.3334 26.3832C27.0861 26.3832 30.5492 27.6024 33.335 29.6598" stroke="#FF8000" stroke-width="2" stroke-linecap="round" stroke-linejoin="round"/>
</svg>
