<svg width="80" height="80" viewBox="0 0 80 80" fill="none" xmlns="http://www.w3.org/2000/svg">
<path opacity="0.4" d="M58.3334 35C58.3334 24.8748 50.1254 16.6667 40 16.6667C30.4108 16.6667 22.5411 24.0288 21.7348 33.409C13.28 34.2137 6.66669 41.3344 6.66669 50C6.66669 59.2047 14.1286 66.6667 23.3334 66.6667H58.3334C66.6177 66.6667 73.3334 59.951 73.3334 51.6667C73.3334 43.3824 66.6177 36.6667 58.3334 36.6667L58.2587 36.667C58.308 36.118 58.3334 35.562 58.3334 35Z" fill="#FF8000"/>
<path d="M9.86465 30.6458C7.39552 21.5727 12.8641 12.2466 22.079 9.81545M9.86465 30.6458L6.66669 31.4895M9.86465 30.6458C10.4787 32.902 11.5257 34.93 12.8941 36.6667M22.079 9.81545L21.2221 6.66669M22.079 9.81545C28.8891 8.01879 35.8394 10.4907 40 15.5654M11.5884 17.7433L8.21469 15.821M37.1357 8.19085L35.19 11.5165" stroke="#FF8000" stroke-width="2" stroke-linecap="round"/>
<path d="M58.2587 36.8167C58.2834 36.8167 58.3084 36.8164 58.3334 36.8164C66.6177 36.8164 73.3334 43.5824 73.3334 51.9287C73.3334 57.1684 70 61.6667 66.6667 63.3334M58.2587 36.8167C58.308 36.2637 58.3334 35.7034 58.3334 35.1374C58.3334 24.9363 50.1254 16.6667 40 16.6667C30.4108 16.6667 22.5411 24.0839 21.7348 33.5344M58.2587 36.8167C57.9177 40.6264 56.4287 44.1027 54.1427 46.8914M21.7348 33.5344C13.28 34.345 6.66669 41.5194 6.66669 50.2497C6.66669 55.7434 9.28519 60.27 13.3334 63.3334M21.7348 33.5344C22.2609 33.484 22.7941 33.458 23.3334 33.458C27.0861 33.458 30.5492 34.7077 33.335 36.8164" stroke="#FF8000" stroke-width="2" stroke-linecap="round" stroke-linejoin="round"/>
<path d="M39.9907 48.3333V53.3333M29.987 58.3333V63.3333M49.987 58.3333V63.3333M21.6536 68.3333V73.3333M58.3203 68.3333V73.3333M39.987 68.3333V73.3333" stroke="#FF8000" stroke-width="2" stroke-linecap="round"/>
</svg>
