<svg width="80" height="80" viewBox="0 0 80 80" fill="none" xmlns="http://www.w3.org/2000/svg">
<path opacity="0.4" d="M58.3334 35C58.3334 24.8748 50.1254 16.6667 40 16.6667C30.4108 16.6667 22.5411 24.0288 21.7348 33.409C13.28 34.2137 6.66669 41.3344 6.66669 50C6.66669 59.2047 14.1286 66.6667 23.3334 66.6667H58.3334C66.6177 66.6667 73.3334 59.951 73.3334 51.6667C73.3334 43.3824 66.6177 36.6667 58.3334 36.6667L58.2587 36.667C58.308 36.118 58.3334 35.562 58.3334 35Z" fill="#66B1F2"/>
<path d="M39.9907 48.3333V53.3333M29.987 58.3333V63.3333M49.987 58.3333V63.3333M21.6536 68.3333V73.3333M58.3203 68.3333V73.3333M39.987 68.3333V73.3333" stroke="#66B1F2" stroke-width="2" stroke-linecap="round"/>
<path d="M33.3334 17.1277C33.0551 15.695 32.5417 14.2836 31.7784 12.9486C29.9536 9.75682 27.0401 7.59549 23.7851 6.66669C24.2881 10.7545 22.3848 14.9385 18.6299 17.1277C14.8751 19.3168 10.3353 18.8894 7.08103 16.4056C6.25006 19.7166 6.64689 23.3452 8.47173 26.5369C11.6171 32.0384 17.9968 34.4787 23.7851 32.8222" stroke="#66B1F2" stroke-width="2" stroke-linejoin="round"/>
<path d="M58.2587 36.8167C58.2834 36.8167 58.3084 36.8164 58.3334 36.8164C66.6177 36.8164 73.3334 43.5824 73.3334 51.9287C73.3334 57.1684 70 61.6667 66.6667 63.3334M58.2587 36.8167C58.308 36.2637 58.3334 35.7034 58.3334 35.1374C58.3334 24.9363 50.1254 16.6667 40 16.6667C30.4108 16.6667 22.5411 24.0839 21.7348 33.5344M58.2587 36.8167C57.9177 40.6264 56.4287 44.1027 54.1427 46.8914M21.7348 33.5344C13.28 34.345 6.66669 41.5194 6.66669 50.2497C6.66669 55.7434 9.28519 60.27 13.3334 63.3334M21.7348 33.5344C22.2609 33.484 22.7941 33.458 23.3334 33.458C27.0861 33.458 30.5492 34.7077 33.335 36.8164" stroke="#66B1F2" stroke-width="2" stroke-linecap="round" stroke-linejoin="round"/>
</svg>
