<svg width="80" height="80" viewBox="0 0 80 80" fill="none" xmlns="http://www.w3.org/2000/svg">
<path opacity="0.4" d="M58.3334 28.3333C58.3334 18.2081 50.1254 10 40 10C30.4108 10 22.5411 17.3621 21.7348 26.7423C13.28 27.5469 6.66669 34.6677 6.66669 43.3333C6.66669 52.538 14.1286 60 23.3334 60H58.3334C66.6177 60 73.3334 53.2843 73.3334 45C73.3334 36.7157 66.6177 30 58.3334 30L58.2587 30.0002C58.308 29.4512 58.3334 28.8952 58.3334 28.3333Z" fill="#66B1F2"/>
<path d="M23.3334 58.3333C14.1286 58.3333 6.66669 51.12 6.66669 42.2223C6.66669 33.8457 13.28 26.962 21.7348 26.1843M21.7348 26.1843C22.5411 17.1167 30.4108 10 40 10C50.1254 10 58.3334 17.9345 58.3334 27.7222C58.3334 28.2654 58.308 28.8028 58.2587 29.3335M21.7348 26.1843C22.2609 26.1359 22.7941 26.1111 23.3334 26.1111C27.0861 26.1111 30.5492 27.3101 33.335 29.3333M58.3334 58.3333C66.6177 58.3333 73.3334 51.8413 73.3334 43.8333C73.3334 35.8253 66.6177 29.3333 58.3334 29.3333C58.3084 29.3333 58.2834 29.3334 58.2587 29.3335M58.2587 29.3335C57.9177 32.9889 56.4287 36.3243 54.1427 39" stroke="#66B1F2" stroke-width="2" stroke-linecap="round" stroke-linejoin="round"/>
<path d="M41.928 46.6667L36.0144 55.6127C35.2227 56.8104 34.827 57.409 35.0724 57.8714C35.3174 58.3334 36.031 58.3334 37.4584 58.3334H42.5417C43.969 58.3334 44.6827 58.3334 44.9277 58.7954C45.173 59.2577 44.7774 59.8564 43.9857 61.054L38.072 70" stroke="#66B1F2" stroke-width="2" stroke-linecap="round" stroke-linejoin="round"/>
</svg>
