<svg width="80" height="80" viewBox="0 0 80 80" fill="none" xmlns="http://www.w3.org/2000/svg">
<path opacity="0.4" d="M58.3334 25C58.3334 14.8748 50.1254 6.66669 40 6.66669C30.4108 6.66669 22.5411 14.0288 21.7348 23.409C13.28 24.2136 6.66669 31.3344 6.66669 40C6.66669 49.2047 14.1286 56.6667 23.3334 56.6667H58.3334C66.6177 56.6667 73.3334 49.951 73.3334 41.6667C73.3334 33.3824 66.6177 26.6667 58.3334 26.6667L58.2587 26.667C58.308 26.1179 58.3334 25.5619 58.3334 25Z" fill="#66B1F2"/>
<path d="M58.2587 26.667C58.2834 26.6667 58.3084 26.6667 58.3334 26.6667C66.6177 26.6667 73.3334 33.3824 73.3334 41.6667C73.3334 49.951 66.6177 56.6667 58.3334 56.6667H23.3334C14.1286 56.6667 6.66669 49.2047 6.66669 40C6.66669 31.3344 13.28 24.2136 21.7348 23.409M58.2587 26.667C58.308 26.1179 58.3334 25.5619 58.3334 25C58.3334 14.8748 50.1254 6.66669 40 6.66669C30.4108 6.66669 22.5411 14.0288 21.7348 23.409M58.2587 26.667C57.9177 30.4484 56.4287 33.8987 54.1427 36.6667M21.7348 23.409C22.2609 23.359 22.7941 23.3334 23.3334 23.3334C27.0861 23.3334 30.5492 24.5737 33.335 26.6667" stroke="#66B1F2" stroke-width="2" stroke-linecap="round" stroke-linejoin="round"/>
<path d="M31 65H49.5" stroke="#66B1F2" stroke-width="2" stroke-linecap="round"/>
<path d="M34 73.3333H46" stroke="#66B1F2" stroke-width="2" stroke-linecap="round"/>
</svg>
