<svg width="23" height="22" viewBox="0 0 23 22" fill="none" xmlns="http://www.w3.org/2000/svg">
    <g opacity="0.4">
        <path d="M13.5834 4.58331C13.5834 6.10209 12.7626 7.33331 11.75 7.33331C10.7375 7.33331 9.91669 6.10209 9.91669 4.58331C9.91669 3.06453 10.7375 1.83331 11.75 1.83331C12.7626 1.83331 13.5834 3.06453 13.5834 4.58331Z" fill="white"/>
        <path d="M16.5739 16.4549C15.275 15.7092 14.6272 14.4067 15.1272 13.5457C15.6272 12.6845 17.0855 12.591 18.3845 13.3367C19.6834 14.0825 20.3311 15.3849 19.8312 16.246C19.3311 17.1071 17.8729 17.2006 16.5739 16.4549Z" fill="white"/>
        <path d="M6.9261 16.4549C8.22505 15.7092 8.87275 14.4067 8.37278 13.5457C7.87282 12.6845 6.41451 12.591 5.11557 13.3367C3.81662 14.0825 3.16892 15.3849 3.66889 16.246C4.16884 17.1071 5.62715 17.2006 6.9261 16.4549Z" fill="white"/>
    </g>
    <path d="M11.75 12.8333V20.1666" stroke="white" stroke-linecap="round"/>
    <path d="M17.25 20.1667H6.25" stroke="white" stroke-linecap="round"/>
    <path d="M11.75 12.8333C12.5094 12.8333 13.125 12.2177 13.125 11.4583C13.125 10.6989 12.5094 10.0833 11.75 10.0833C10.9906 10.0833 10.375 10.6989 10.375 11.4583C10.375 12.2177 10.9906 12.8333 11.75 12.8333Z" stroke="white" stroke-linecap="round"/>
    <path d="M11.75 7.33331C12.7625 7.33331 13.5834 6.1021 13.5834 4.58331C13.5834 3.06453 12.7625 1.83331 11.75 1.83331C10.7375 1.83331 9.91669 3.06453 9.91669 4.58331C9.91669 6.1021 10.7375 7.33331 11.75 7.33331Z" stroke="white" stroke-linecap="round"/>
    <path d="M16.5739 16.4549C15.275 15.7092 14.6272 14.4067 15.1272 13.5457C15.6272 12.6845 17.0855 12.591 18.3845 13.3367C19.6834 14.0825 20.3311 15.3849 19.8312 16.246C19.3311 17.1071 17.8729 17.2006 16.5739 16.4549Z" stroke="white" stroke-linecap="round"/>
    <path d="M6.9261 16.4549C8.22505 15.7092 8.87275 14.4067 8.37278 13.5457C7.87282 12.6845 6.41451 12.591 5.11557 13.3367C3.81662 14.0825 3.16892 15.3849 3.66889 16.246C4.16884 17.1071 5.62715 17.2006 6.9261 16.4549Z" stroke="white" stroke-linecap="round"/>
    <path d="M11.75 7.33331V10.0833" stroke="white"/>
    <path d="M12.6667 11.9167L15.4167 13.75" stroke="white"/>
    <path d="M10.8333 11.9167L8.08331 13.75" stroke="white"/>
    <path d="M7.625 2.75C5.15907 4.13105 3.5 6.71234 3.5 9.66882C3.5 10.1224 3.53905 10.5671 3.61407 11M15.875 2.75C18.3409 4.13105 20 6.71234 20 9.66882C20 10.1224 19.961 10.5671 19.886 11" stroke="white" stroke-linecap="round"/>
</svg>
