<svg width="14" height="38" viewBox="0 0 14 38" fill="none" xmlns="http://www.w3.org/2000/svg">
    <path opacity="0.4" d="M8.00804 5.4317L8.71623 6.3307C9.86367 7.78726 10.4373 8.51554 10.1757 9.10657C9.914 9.6976 9.01781 9.6976 7.22544 9.6976H5.80907C4.01671 9.6976 3.12054 9.6976 2.85885 9.10657C2.59716 8.51554 3.17088 7.78726 4.3183 6.33071L5.02647 5.4317C5.71735 4.5547 6.06284 4.11621 6.51726 4.11621C6.97167 4.11621 7.31716 4.5547 8.00804 5.4317Z" fill="#E70000"/>
    <path d="M8.00805 5.4317L8.71623 6.3307C9.86367 7.78726 10.4373 8.51554 10.1757 9.10657C9.914 9.6976 9.01781 9.6976 7.22544 9.6976H5.80907C4.01671 9.6976 3.12054 9.6976 2.85885 9.10657C2.59716 8.51554 3.17088 7.78726 4.3183 6.33071L5.02647 5.4317C5.71735 4.5547 6.06284 4.11621 6.51726 4.11621C6.97167 4.11621 7.31716 4.5547 8.00805 5.4317Z" stroke="#E70000" stroke-linecap="round" stroke-linejoin="round"/>
    <path d="M6.49976 9.99976L6.49975 33.9997" stroke="#E70000" stroke-linecap="round" stroke-linejoin="round"/>
</svg>
