<svg width="79" height="80" viewBox="0 0 79 80" fill="none" xmlns="http://www.w3.org/2000/svg">
    <circle opacity="0.6" cx="39.75" cy="40" r="37.2093" stroke="url(#paint0_radial_0_1)" stroke-width="4" stroke-dasharray="0.33 0.33"/>
    <circle cx="39.75" cy="40" r="22.1583" stroke="#0381FF" stroke-dasharray="1.67 5.02 6.69 1.67 5.02 6.69"/>
    <circle cx="39.75" cy="40" r="19.6499" transform="rotate(41.5066 39.75 40)" stroke="#0381FF" stroke-dasharray="1.67 5.02 6.69 1.67 5.02 6.69"/>
    <circle opacity="0.6" cx="39.75" cy="40" r="30.7008" transform="rotate(-45 39.75 40)" stroke="white" stroke-width="8" stroke-dasharray="0.5 40"/>
    <path d="M37.4797 14V7H39.1097L41.5497 13.47H41.6797V7H42.5097V14H40.8797L38.4497 7.52H38.3097V14H37.4797Z" fill="white"/>
    <path d="M68.4826 43V36H72.7926V36.76H69.3226V39.1H72.5126V39.86H69.3226V42.24H72.8426V43H68.4826Z" fill="white"/>
    <path d="M7.135 43L5.995 36H6.835L7.825 42.46H7.965L9.255 36H10.755L12.035 42.46H12.175L13.165 36H14.005L12.865 43H11.365L10.075 36.5H9.935L8.645 43H7.135Z" fill="white"/>
    <path d="M40.0636 73.14C39.5569 73.14 39.1036 73.05 38.7036 72.87C38.3036 72.69 37.9869 72.42 37.7536 72.06C37.5269 71.6933 37.4136 71.2367 37.4136 70.69V70.48H38.2436V70.69C38.2436 71.27 38.4136 71.7033 38.7536 71.99C39.0936 72.27 39.5303 72.41 40.0636 72.41C40.6103 72.41 41.0269 72.2867 41.3136 72.04C41.6003 71.7933 41.7436 71.4833 41.7436 71.11C41.7436 70.85 41.6769 70.6433 41.5436 70.49C41.4169 70.3367 41.2369 70.2133 41.0036 70.12C40.7703 70.02 40.4969 69.9333 40.1836 69.86L39.6636 69.73C39.2569 69.6233 38.8969 69.4933 38.5836 69.34C38.2703 69.1867 38.0236 68.9867 37.8436 68.74C37.6703 68.4867 37.5836 68.1633 37.5836 67.77C37.5836 67.3767 37.6803 67.0367 37.8736 66.75C38.0736 66.4633 38.3503 66.2433 38.7036 66.09C39.0636 65.9367 39.4769 65.86 39.9436 65.86C40.4169 65.86 40.8403 65.9433 41.2136 66.11C41.5936 66.27 41.8903 66.51 42.1036 66.83C42.3236 67.1433 42.4336 67.54 42.4336 68.02V68.44H41.6036V68.02C41.6036 67.68 41.5303 67.4067 41.3836 67.2C41.2436 66.9933 41.0469 66.84 40.7936 66.74C40.5469 66.64 40.2636 66.59 39.9436 66.59C39.4836 66.59 39.1136 66.6933 38.8336 66.9C38.5536 67.1 38.4136 67.3867 38.4136 67.76C38.4136 68.0067 38.4736 68.2067 38.5936 68.36C38.7136 68.5133 38.8836 68.64 39.1036 68.74C39.3236 68.8333 39.5869 68.9167 39.8936 68.99L40.4136 69.12C40.8203 69.2067 41.1836 69.3267 41.5036 69.48C41.8303 69.6267 42.0903 69.83 42.2836 70.09C42.4769 70.3433 42.5736 70.6767 42.5736 71.09C42.5736 71.5033 42.4703 71.8633 42.2636 72.17C42.0569 72.4767 41.7636 72.7167 41.3836 72.89C41.0103 73.0567 40.5703 73.14 40.0636 73.14Z" fill="white"/>
    <defs>
        <radialGradient id="paint0_radial_0_1" cx="0" cy="0" r="1" gradientUnits="userSpaceOnUse" gradientTransform="translate(39.75 40) rotate(90.3871) scale(37.0009)">
            <stop stop-color="white"/>
            <stop offset="1" stop-color="white" stop-opacity="0.6"/>
        </radialGradient>
    </defs>
</svg>
