<svg width="22" height="22" viewBox="0 0 22 22" fill="none" xmlns="http://www.w3.org/2000/svg">
    <path d="M8.70837 6.87502C9.15894 7.33858 10.3582 9.16669 11 9.16669M11 9.16669C11.6419 9.16669 12.8412 7.33858 13.2917 6.87502M11 9.16669V3.66669" stroke="white" stroke-linecap="round" stroke-linejoin="round"/>
    <path d="M16.833 9.75031L15.5366 11.0467" stroke="white" stroke-linecap="round"/>
    <path d="M2.75 15.5833H4.58333" stroke="white" stroke-linecap="round"/>
    <path d="M5.16687 9.75024L6.46323 11.0466" stroke="white" stroke-linecap="round"/>
    <path d="M19.25 15.5833H17.4166" stroke="white" stroke-linecap="round"/>
    <path d="M19.25 18.3333H2.75" stroke="white" stroke-linecap="round"/>
    <path opacity="0.4" d="M11 11.9167C8.975 11.9167 7.33337 13.5583 7.33337 15.5834H14.6667C14.6667 13.5583 13.025 11.9167 11 11.9167Z" fill="white"/>
    <path d="M14.6667 15.5834C14.6667 13.5583 13.025 11.9167 11 11.9167C8.975 11.9167 7.33337 13.5583 7.33337 15.5834" stroke="white" stroke-linecap="round"/>
</svg>
