<svg width="23" height="22" viewBox="0 0 23 22" fill="none" xmlns="http://www.w3.org/2000/svg">
    <path d="M9.20831 5.95835C9.65888 5.4948 10.8581 3.66669 11.5 3.66669M11.5 3.66669C12.1418 3.66669 13.3411 5.4948 13.7916 5.95835M11.5 3.66669V9.16669" stroke="white" stroke-linecap="round" stroke-linejoin="round"/>
    <path d="M17.333 9.75031L16.0367 11.0467" stroke="white" stroke-linecap="round"/>
    <path d="M3.25 15.5833H5.08333" stroke="white" stroke-linecap="round"/>
    <path d="M5.66687 9.75024L6.96323 11.0466" stroke="white" stroke-linecap="round"/>
    <path d="M19.75 15.5833H17.9167" stroke="white" stroke-linecap="round"/>
    <path d="M19.75 18.3333H3.25" stroke="white" stroke-linecap="round"/>
    <path opacity="0.4" d="M11.5 11.9167C9.47493 11.9167 7.83331 13.5583 7.83331 15.5834H15.1666C15.1666 13.5583 13.525 11.9167 11.5 11.9167Z" fill="white"/>
    <path d="M15.1666 15.5834C15.1666 13.5583 13.525 11.9167 11.5 11.9167C9.47493 11.9167 7.83331 13.5583 7.83331 15.5834" stroke="white" stroke-linecap="round"/>
</svg>
