<svg width="80" height="80" viewBox="0 0 80 80" fill="none" xmlns="http://www.w3.org/2000/svg">
    <path opacity="0.4" d="M12.0479 41.1857C12.05 41.174 12.052 41.1623 12.0541 41.1507C16.9362 39.6383 27.9719 38.9467 39.9473 45.6733C51.9 52.387 63.3333 50.0013 68.3333 45.5947C68.3333 45.5943 68.3333 45.595 68.3333 45.5947C68.3333 31.6475 56.3973 17.8636 48.0197 9.90741C43.4697 5.58645 36.5303 5.58645 31.9804 9.90741C24.4876 17.0231 14.1486 28.7994 12.0479 41.1857Z" fill="#1194FF"/>
    <path d="M11.6667 45.5933C11.6667 31.6462 23.6026 17.8636 31.9804 9.90741C36.5303 5.58645 43.4697 5.58645 48.0197 9.90741C56.3973 17.8636 68.3333 31.6462 68.3333 45.5933C68.3333 59.268 57.604 73.3333 40 73.3333C22.3959 73.3333 11.6667 59.268 11.6667 45.5933Z" stroke="#1194FF" stroke-width="2"/>
    <path d="M13.3333 40.9466C18.2154 39.4343 27.972 38.9453 39.9473 45.672C51.9 52.3856 61.72 49.9946 66.6667 47.118" stroke="#1194FF" stroke-width="2" stroke-linecap="round" stroke-linejoin="round"/>
</svg>
