<svg width="23" height="22" viewBox="0 0 23 22" fill="none" xmlns="http://www.w3.org/2000/svg">
    <path d="M11.0624 8.25C11.0624 8.62969 11.3702 8.9375 11.7499 8.9375C12.1296 8.9375 12.4374 8.62969 12.4374 8.25H11.0624ZM12.4374 2.75C12.4374 2.37031 12.1296 2.0625 11.7499 2.0625C11.3702 2.0625 11.0624 2.37031 11.0624 2.75H12.4374ZM12.4374 8.25V2.75H11.0624V8.25H12.4374Z" fill="white"/>
    <path d="M11.0624 19.25C11.0624 19.6297 11.3702 19.9375 11.7499 19.9375C12.1296 19.9375 12.4374 19.6297 12.4374 19.25H11.0624ZM12.4374 13.75C12.4374 13.3703 12.1296 13.0625 11.7499 13.0625C11.3702 13.0625 11.0624 13.3703 11.0624 13.75H12.4374ZM12.4374 19.25V13.75H11.0624V19.25H12.4374Z" fill="white"/>
    <path d="M14.4999 5.49998C14.4999 5.49998 12.4746 2.75001 11.7499 2.75C11.0253 2.74999 8.99994 5.5 8.99994 5.5" stroke="white" stroke-width="1.5" stroke-linecap="round" stroke-linejoin="round"/>
    <path opacity="0.4" d="M8.99988 11.6875C9.37958 11.6875 9.68738 11.3797 9.68738 11C9.68738 10.6203 9.37958 10.3125 8.99988 10.3125V11.6875ZM5.84214 14.3038C6.14785 14.529 6.57823 14.4636 6.80341 14.1579C7.02859 13.8522 6.9633 13.4218 6.65758 13.1967L5.84214 14.3038ZM6.65755 8.80382C6.96329 8.57867 7.02862 8.1483 6.80347 7.84256C6.57833 7.53682 6.14795 7.47149 5.84222 7.69664L6.65755 8.80382ZM8.99988 10.3125H3.49988V11.6875H8.99988V10.3125ZM2.81238 11C2.81239 11.2821 2.93559 11.5258 3.02925 11.6812C3.13429 11.8554 3.27136 12.0288 3.41435 12.1907C3.70173 12.5159 4.07178 12.86 4.42412 13.166C4.77987 13.4749 5.13361 13.7587 5.39718 13.9644C5.52932 14.0675 5.63965 14.1517 5.7173 14.2104C5.75615 14.2397 5.78687 14.2627 5.80812 14.2786C5.81874 14.2864 5.827 14.2926 5.83272 14.2968C5.83559 14.2989 5.83939 14.3017 5.83939 14.3017L5.84126 14.3031L5.84214 14.3038C5.84214 14.3038 5.84214 14.3038 6.24986 13.7502C6.65758 13.1967 6.65758 13.1967 6.65758 13.1967L6.65634 13.1958C6.65634 13.1958 6.65356 13.1937 6.65121 13.1919C6.64654 13.1885 6.63935 13.1831 6.62984 13.1761C6.6108 13.1619 6.58244 13.1407 6.54609 13.1132C6.47335 13.0583 6.36883 12.9785 6.24318 12.8805C5.99112 12.6837 5.65737 12.4158 5.32563 12.1278C4.99048 11.8367 4.67304 11.5386 4.44479 11.2802C4.32997 11.1503 4.25219 11.0466 4.20684 10.9713C4.15012 10.8773 4.18738 10.8992 4.18738 11H2.81238ZM6.24988 8.25022C5.84222 7.69664 5.84222 7.69664 5.84222 7.69664L5.84134 7.69728L5.83947 7.69866C5.83947 7.69866 5.83566 7.70147 5.8328 7.70359C5.82708 7.70783 5.81882 7.71396 5.8082 7.72188C5.78695 7.73771 5.75623 7.7607 5.71739 7.79004C5.63973 7.84869 5.5294 7.93285 5.39725 8.03596C5.13368 8.24164 4.77993 8.52536 4.42417 8.83421C4.07182 9.14011 3.70176 9.4842 3.41438 9.80944C3.27138 9.97123 3.13431 10.1446 3.02926 10.3188C2.93559 10.4742 2.81238 10.7179 2.81238 11H4.18738C4.18738 11.1009 4.15011 11.1228 4.20682 11.0288C4.25217 10.9535 4.32994 10.8499 4.44475 10.7199C4.67299 10.4616 4.99043 10.1635 5.32558 9.8725C5.65733 9.58449 5.99108 9.31664 6.24313 9.11998C6.3688 9.02193 6.47332 8.94221 6.54605 8.88728C6.5824 8.85983 6.61076 8.8386 6.6298 8.82441C6.63931 8.81733 6.6465 8.81199 6.65118 8.80853C6.65352 8.8068 6.6563 8.80473 6.6563 8.80473L6.65755 8.80382C6.65755 8.80382 6.65755 8.80382 6.24988 8.25022Z" fill="white"/>
    <path opacity="0.4" d="M14.4999 10.3124C14.1202 10.3124 13.8124 10.6202 13.8124 10.9999C13.8124 11.3796 14.1202 11.6874 14.4999 11.6874V10.3124ZM17.6577 7.69641C17.3519 7.47125 16.9215 7.53656 16.6964 7.8423C16.4713 8.14802 16.5365 8.5784 16.8422 8.80356L17.6577 7.69641ZM16.8422 13.1964C16.5365 13.4216 16.4713 13.852 16.6964 14.1577C16.9215 14.4634 17.3519 14.5287 17.6577 14.3036L16.8422 13.1964ZM19.9999 10.3124H14.4999V11.6874H19.9999V10.3124ZM20.6874 10.9999C20.6874 10.7178 20.5642 10.4741 20.4705 10.3187C20.3654 10.1445 20.2284 9.97112 20.0854 9.80923C19.798 9.484 19.428 9.13995 19.0756 8.83404C18.7199 8.52517 18.3662 8.24143 18.1027 8.03575C17.9705 7.93263 17.8601 7.84848 17.7825 7.78982C17.7437 7.76048 17.7129 7.73749 17.6917 7.72165C17.6811 7.71373 17.6728 7.7076 17.6671 7.70337C17.6642 7.70125 17.662 7.6996 17.6604 7.69844C17.6596 7.69785 17.659 7.69739 17.6585 7.69705C17.6584 7.69701 17.6577 7.69641 17.25 8.24998C16.8422 8.80356 16.8422 8.80358 16.8422 8.80356C16.8421 8.80349 16.8422 8.80358 16.8422 8.80356C16.8424 8.80372 16.843 8.80408 16.8435 8.80448C16.8446 8.80526 16.8463 8.80653 16.8487 8.80827C16.8533 8.81174 16.8605 8.81706 16.87 8.82416C16.8891 8.83835 16.9174 8.85957 16.9538 8.88702C17.0265 8.94196 17.131 9.02168 17.2567 9.11974C17.5087 9.31643 17.8425 9.58428 18.1742 9.8723C18.5094 10.1633 18.8267 10.4614 19.055 10.7197C19.1698 10.8497 19.2476 10.9534 19.2929 11.0286C19.3496 11.1227 19.3124 11.1007 19.3124 10.9999H20.6874ZM17.25 13.75C17.6577 14.3036 17.6576 14.3036 17.6577 14.3036C17.6579 14.3035 17.6583 14.3031 17.6585 14.3029C17.659 14.3026 17.6596 14.3021 17.6604 14.3015C17.662 14.3004 17.6642 14.2987 17.6671 14.2966C17.6728 14.2924 17.6811 14.2862 17.6917 14.2783C17.7129 14.2625 17.7437 14.2395 17.7825 14.2102C17.8601 14.1515 17.9705 14.0673 18.1027 13.9641C18.3662 13.7584 18.7199 13.4747 19.0757 13.1658C19.428 12.8599 19.798 12.5158 20.0854 12.1906C20.2284 12.0287 20.3654 11.8553 20.4705 11.6811C20.5642 11.5257 20.6874 11.282 20.6874 10.9999H19.3124C19.3124 10.899 19.3496 10.8771 19.2929 10.9712C19.2476 11.0464 19.1698 11.1501 19.055 11.2801C18.8267 11.5384 18.5093 11.8365 18.1742 12.1276C17.8424 12.4156 17.5087 12.6835 17.2567 12.8803C17.131 12.9782 17.0265 13.058 16.9537 13.113C16.9174 13.1404 16.889 13.1617 16.87 13.1758C16.8605 13.1829 16.8533 13.1883 16.8486 13.1917C16.8463 13.1935 16.8445 13.1948 16.8435 13.1955C16.843 13.1959 16.8425 13.1962 16.8422 13.1964C16.8421 13.1965 16.8423 13.1964 16.8422 13.1964C16.8423 13.1963 16.8422 13.1964 17.25 13.75Z" fill="white"/>
    <path d="M8.99994 16.5C8.99994 16.5 11.0253 19.25 11.75 19.25C12.4746 19.25 14.4999 16.5 14.4999 16.5" stroke="white" stroke-width="1.5" stroke-linecap="round" stroke-linejoin="round"/>
</svg>
