<svg width="23" height="22" viewBox="0 0 23 22" fill="none" xmlns="http://www.w3.org/2000/svg">
    <path opacity="0.4" fill-rule="evenodd" clip-rule="evenodd" d="M20.9166 11C20.9166 10.7108 20.7773 10.5153 20.4986 10.1246C19.2464 8.36863 16.0484 4.58331 11.75 4.58331C7.45153 4.58331 4.25357 8.36863 3.00135 10.1246C2.72266 10.5153 2.58331 10.7108 2.58331 11C2.58331 11.2892 2.72266 11.4846 3.00135 11.8754C4.25357 13.6314 7.45153 17.4166 11.75 17.4166C16.0484 17.4166 19.2464 13.6314 20.4986 11.8754C20.7773 11.4846 20.9166 11.2892 20.9166 11ZM11.75 8.24998C13.2688 8.24998 14.5 9.48115 14.5 11C14.5 12.5188 13.2688 13.75 11.75 13.75C10.2312 13.75 8.99998 12.5188 8.99998 11C8.99998 9.48115 10.2312 8.24998 11.75 8.24998Z" fill="white"/>
    <path d="M20.4986 10.1246C20.7773 10.5153 20.9166 10.7108 20.9166 11C20.9166 11.2892 20.7773 11.4846 20.4986 11.8754C19.2464 13.6314 16.0484 17.4166 11.75 17.4166C7.45153 17.4166 4.25357 13.6314 3.00135 11.8754C2.72266 11.4846 2.58331 11.2892 2.58331 11C2.58331 10.7108 2.72266 10.5153 3.00135 10.1246C4.25357 8.36863 7.45153 4.58331 11.75 4.58331C16.0484 4.58331 19.2464 8.36863 20.4986 10.1246Z" stroke="white"/>
    <path d="M14.5 11C14.5 9.48117 13.2688 8.25 11.75 8.25C10.2312 8.25 9 9.48117 9 11C9 12.5188 10.2312 13.75 11.75 13.75C13.2688 13.75 14.5 12.5188 14.5 11Z" stroke="white"/>
</svg>
