<svg width="23" height="22" viewBox="0 0 23 22" fill="none" xmlns="http://www.w3.org/2000/svg">
    <path opacity="0.4" d="M14.9537 2.80758C12.375 4.15825 10.4953 7.00573 10.8842 11.9167C13.4241 11.7677 15.4378 10.9758 17.176 9.71997C17.9691 9.14689 18.3658 8.86037 18.4335 8.27639C18.5121 7.59911 17.9249 7.03363 17.4366 6.56347C17.3333 6.46395 17.2344 6.3687 17.1472 6.27756C18.1383 6.09364 18.9489 5.82757 19.561 5.41308C19.9999 6.71277 19.9999 8.58156 19.9999 11.4583C19.9999 15.5634 19.9999 17.616 18.7247 18.8914C17.4493 20.1667 15.3967 20.1667 11.2916 20.1667C7.18644 20.1667 5.13387 20.1667 3.85856 18.8914C2.58325 17.616 2.58325 15.5634 2.58325 11.4583C2.58325 7.35319 2.58325 5.30062 3.85856 4.0253C5.13387 2.75 7.18644 2.75 11.2916 2.75C12.7533 2.75 13.9549 2.75 14.9537 2.80758Z" fill="white"/>
    <path d="M10.4209 2.75C6.88959 2.75636 5.04038 2.84306 3.85859 4.02484C2.58325 5.30018 2.58325 7.35281 2.58325 11.4581C2.58325 15.5633 2.58325 17.6159 3.85859 18.8913C5.13394 20.1667 7.18657 20.1667 11.2919 20.1667C15.3971 20.1667 17.4498 20.1667 18.7251 18.8913C19.9069 17.7095 19.9936 15.8603 19.9999 12.329" stroke="white" stroke-linecap="round" stroke-linejoin="round"/>
    <path d="M10.8843 11.9167C10.2212 3.54419 16.1521 1.16929 20.8988 1.98406C21.0905 4.75879 19.7328 5.79779 17.1472 6.2776C17.6466 6.79929 18.5288 7.45579 18.4336 8.27643C18.3659 8.86041 17.9692 9.14693 17.1761 9.72001C15.4378 10.9758 13.4242 11.7677 10.8843 11.9167Z" stroke="white" stroke-linecap="round" stroke-linejoin="round"/>
    <path d="M9 15.5834C10.8333 10.5417 12.6304 8.83337 14.5 7.33337" stroke="white" stroke-linecap="round" stroke-linejoin="round"/>
</svg>
