<svg width="23" height="22" viewBox="0 0 23 22" fill="none" xmlns="http://www.w3.org/2000/svg">
    <path opacity="0.4" d="M16.7916 7.79167C16.7916 5.00723 14.5344 2.75 11.75 2.75C9.11295 2.75 6.94878 4.77457 6.72703 7.35414C4.40196 7.5754 2.58331 9.53361 2.58331 11.9167C2.58331 14.448 4.63534 16.5 7.16665 16.5H16.7916C19.0698 16.5 20.9166 14.6532 20.9166 12.375C20.9166 10.0968 19.0698 8.25 16.7916 8.25L16.7711 8.25005C16.7847 8.09908 16.7916 7.94618 16.7916 7.79167Z" fill="white"/>
    <path d="M16.7711 8.25005C16.7779 8.25002 16.7848 8.25 16.7916 8.25C19.0698 8.25 20.9166 10.0968 20.9166 12.375C20.9166 14.6532 19.0698 16.5 16.7916 16.5H7.16665C4.63534 16.5 2.58331 14.448 2.58331 11.9167C2.58331 9.53361 4.40196 7.5754 6.72703 7.35414M16.7711 8.25005C16.7847 8.09908 16.7916 7.94618 16.7916 7.79167C16.7916 5.00723 14.5344 2.75 11.75 2.75C9.11295 2.75 6.94878 4.77457 6.72703 7.35414M16.7711 8.25005C16.6773 9.28996 16.2679 10.2388 15.6392 11M6.72703 7.35414C6.87172 7.34037 7.01836 7.33333 7.16665 7.33333C8.19865 7.33333 9.15099 7.67442 9.9171 8.25" stroke="white" stroke-linecap="round" stroke-linejoin="round"/>
    <path d="M6.25 19.25H8.08333" stroke="white" stroke-linecap="round"/>
    <path d="M10.8333 19.25H12.6666" stroke="white" stroke-linecap="round"/>
    <path d="M15.4167 19.25H17.25" stroke="white" stroke-linecap="round"/>
</svg>
