<svg width="50" height="50" viewBox="0 0 50 50" fill="none" xmlns="http://www.w3.org/2000/svg">
    <path opacity="0.4" d="M10.4167 16.6667C12.7179 16.6667 14.5833 14.8012 14.5833 12.5C14.5833 10.1988 12.7179 8.33334 10.4167 8.33334C8.11548 8.33334 6.25 10.1988 6.25 12.5C6.25 14.8012 8.11548 16.6667 10.4167 16.6667Z" fill="white"/>
    <path d="M10.4167 16.6667C12.7179 16.6667 14.5833 14.8012 14.5833 12.5C14.5833 10.1988 12.7179 8.33334 10.4167 8.33334C8.11548 8.33334 6.25 10.1988 6.25 12.5C6.25 14.8012 8.11548 16.6667 10.4167 16.6667Z" stroke="white" stroke-width="2.5" stroke-linecap="round" stroke-linejoin="round"/>
    <path d="M43.75 14.5833C43.6577 13.2227 43.4502 12.2639 42.9835 11.4583C42.4331 10.5082 41.6412 9.71924 40.6877 9.17068C39.2323 8.33334 37.2783 8.33334 33.3702 8.33334C29.4623 8.33334 27.5081 8.33334 26.0527 9.17068C25.0992 9.71924 24.3075 10.5082 23.7569 11.4583C22.9167 12.9087 22.9167 14.8558 22.9167 18.75V31.25C22.9167 35.1442 22.9167 37.0912 23.7569 38.5417C24.3075 39.4919 25.0992 40.2808 26.0527 40.8294C27.5081 41.6667 29.4623 41.6667 33.3702 41.6667C37.2783 41.6667 39.2323 41.6667 40.6877 40.8294C41.6412 40.2808 42.4331 39.4919 42.9835 38.5417C43.4502 37.736 43.6577 36.7773 43.75 35.4167" stroke="white" stroke-width="2.5" stroke-linecap="round" stroke-linejoin="round"/>
</svg>
