<svg width="23" height="22" viewBox="0 0 23 22" fill="none" xmlns="http://www.w3.org/2000/svg">
    <path d="M20 5.16308C18.9582 4.41279 17.6254 4.41279 16.5836 5.16308C15.9554 5.62349 15.1128 5.60644 14.4847 5.14604C13.4429 4.39574 12.1101 4.39574 11.0836 5.14604C10.4401 5.60644 9.62814 5.60644 9 5.14604" stroke="white" stroke-linecap="round"/>
    <path d="M3.5 8.59532C4.57102 9.34569 5.94129 9.34569 7.01232 8.59532C7.65807 8.13489 8.50859 8.13489 9.15435 8.59532C10.2254 9.34569 11.6114 9.36274 12.6667 8.61237" stroke="white" stroke-linecap="round"/>
    <path d="M20 13.4047C18.9582 12.6543 17.6254 12.6543 16.5836 13.4047C15.9554 13.8651 15.1281 13.8651 14.5 13.4047C13.4582 12.6543 12.1101 12.6373 11.0836 13.3876C10.4401 13.8481 9.62814 13.8481 9 13.3876" stroke="white" stroke-linecap="round"/>
    <path d="M3.5 16.8453C4.57102 17.5957 5.94129 17.5957 7.01232 16.8453C7.65807 16.3849 8.50859 16.3849 9.15435 16.8453C10.2254 17.5957 11.6114 17.6128 12.6667 16.8624" stroke="white" stroke-linecap="round"/>
</svg>
