<svg width="23" height="22" viewBox="0 0 23 22" fill="none" xmlns="http://www.w3.org/2000/svg">
    <path d="M18.0849 16.5C18.9227 17.754 19.277 18.5194 18.9793 19.1582C18.9427 19.2366 18.8999 19.3122 18.8513 19.3845C18.3247 20.1667 16.9636 20.1667 14.2413 20.1667H9.25873C6.53649 20.1667 5.17536 20.1667 4.6487 19.3845C4.60006 19.3122 4.55729 19.2366 4.52077 19.1582C4.22299 18.5194 4.57735 17.754 5.41507 16.5" stroke="white" stroke-linecap="round" stroke-linejoin="round"/>
    <path d="M11.75 1.83334C15.4706 1.83334 18.625 4.9757 18.625 8.788C18.625 12.661 15.4192 15.3789 12.4581 17.2271C12.2423 17.3513 11.9983 17.4167 11.75 17.4167C11.5017 17.4167 11.2577 17.3513 11.0419 17.2271C8.08631 15.3609 4.875 12.6744 4.875 8.788C4.875 4.9757 8.02943 1.83334 11.75 1.83334Z" stroke="white"/>
    <path opacity="0.4" fill-rule="evenodd" clip-rule="evenodd" d="M18.625 8.788C18.625 4.9757 15.4706 1.83334 11.75 1.83334C8.02943 1.83334 4.875 4.9757 4.875 8.788C4.875 12.6744 8.08631 15.3609 11.0419 17.2271C11.2577 17.3513 11.5017 17.4167 11.75 17.4167C11.9983 17.4167 12.2423 17.3513 12.4581 17.2271C15.4192 15.3789 18.625 12.661 18.625 8.788ZM11.75 11.4583C13.2688 11.4583 14.5 10.2272 14.5 8.70834C14.5 7.18956 13.2688 5.95834 11.75 5.95834C10.2312 5.95834 9 7.18956 9 8.70834C9 10.2272 10.2312 11.4583 11.75 11.4583Z" fill="white"/>
    <path d="M14.5 8.70834C14.5 10.2272 13.2688 11.4583 11.75 11.4583C10.2312 11.4583 9 10.2272 9 8.70834C9 7.18956 10.2312 5.95834 11.75 5.95834C13.2688 5.95834 14.5 7.18956 14.5 8.70834Z" stroke="white"/>
</svg>
