<svg width="168" height="36" viewBox="0 0 168 36" fill="none" xmlns="http://www.w3.org/2000/svg">
    <path d="M45.416 26.264C43.016 26.264 41.384 25.6 40.52 24.272C39.672 22.944 39.248 20.76 39.248 17.72C39.248 14.68 39.68 12.52 40.544 11.24C41.408 9.94399 43.032 9.29599 45.416 9.29599C46.84 9.29599 48.408 9.49599 50.12 9.89599L50.024 12.056C48.584 11.8 47.144 11.672 45.704 11.672C44.264 11.672 43.288 12.104 42.776 12.968C42.264 13.816 42.008 15.424 42.008 17.792C42.008 20.144 42.256 21.752 42.752 22.616C43.248 23.464 44.216 23.888 45.656 23.888C47.096 23.888 48.552 23.768 50.024 23.528L50.096 25.736C48.448 26.088 46.888 26.264 45.416 26.264Z" fill="#0B71C9"/>
    <path d="M53.7426 26V9.008H56.3586V26H53.7426Z" fill="#0B71C9"/>
    <path d="M61.277 15.296C62.109 14.256 63.485 13.736 65.405 13.736C67.325 13.736 68.693 14.256 69.509 15.296C70.341 16.336 70.757 17.896 70.757 19.976C70.757 22.056 70.357 23.624 69.557 24.68C68.757 25.736 67.373 26.264 65.405 26.264C63.437 26.264 62.053 25.736 61.253 24.68C60.453 23.624 60.053 22.056 60.053 19.976C60.053 17.896 60.461 16.336 61.277 15.296ZM63.245 23.096C63.613 23.736 64.333 24.056 65.405 24.056C66.477 24.056 67.197 23.736 67.565 23.096C67.933 22.456 68.117 21.408 68.117 19.952C68.117 18.496 67.917 17.464 67.517 16.856C67.133 16.248 66.429 15.944 65.405 15.944C64.381 15.944 63.669 16.248 63.269 16.856C62.885 17.464 62.693 18.496 62.693 19.952C62.693 21.408 62.877 22.456 63.245 23.096Z" fill="#0B71C9"/>
    <path d="M81.5876 14H84.1796V26H81.5876V25.256C80.4196 25.928 79.3396 26.264 78.3476 26.264C76.6996 26.264 75.5956 25.824 75.0356 24.944C74.4756 24.048 74.1956 22.488 74.1956 20.264V14H76.8116V20.288C76.8116 21.728 76.9316 22.696 77.1716 23.192C77.4116 23.688 77.9716 23.936 78.8516 23.936C79.7156 23.936 80.5076 23.776 81.2276 23.456L81.5876 23.312V14Z" fill="#0B71C9"/>
    <path d="M98.0988 9.008V26H95.5068V25.376C94.3388 25.968 93.2668 26.264 92.2908 26.264C90.7228 26.264 89.5708 25.792 88.8348 24.848C88.1148 23.904 87.7548 22.32 87.7548 20.096C87.7548 17.872 88.1548 16.256 88.9548 15.248C89.7708 14.24 91.0348 13.736 92.7468 13.736C93.3228 13.736 94.2348 13.84 95.4828 14.048V9.008H98.0988ZM95.0748 23.504L95.4828 23.336V16.232C94.5228 16.072 93.6348 15.992 92.8188 15.992C91.2028 15.992 90.3948 17.336 90.3948 20.024C90.3948 21.496 90.5788 22.52 90.9468 23.096C91.3308 23.656 91.9308 23.936 92.7468 23.936C93.5628 23.936 94.3388 23.792 95.0748 23.504Z" fill="#0B71C9"/>
    <path d="M114.797 20.888H111.437V26H108.773V9.56H114.797C118.525 9.56 120.389 11.4 120.389 15.08C120.389 16.968 119.917 18.408 118.973 19.4C118.045 20.392 116.653 20.888 114.797 20.888ZM111.437 18.584H114.773C116.693 18.584 117.653 17.416 117.653 15.08C117.653 13.96 117.421 13.144 116.957 12.632C116.493 12.12 115.765 11.864 114.773 11.864H111.437V18.584Z" fill="#0B71C9"/>
    <path d="M130.873 14H133.465V26H130.873V25.256C129.705 25.928 128.625 26.264 127.633 26.264C125.985 26.264 124.881 25.824 124.321 24.944C123.761 24.048 123.481 22.488 123.481 20.264V14H126.097V20.288C126.097 21.728 126.217 22.696 126.457 23.192C126.697 23.688 127.257 23.936 128.137 23.936C129.001 23.936 129.793 23.776 130.513 23.456L130.873 23.312V14Z" fill="#0B71C9"/>
    <path d="M137.736 26V9.008H140.352V26H137.736Z" fill="#0B71C9"/>
    <path d="M152.95 16.472C151.062 16.216 149.694 16.088 148.846 16.088C147.998 16.088 147.406 16.192 147.07 16.4C146.75 16.592 146.59 16.904 146.59 17.336C146.59 17.768 146.766 18.072 147.118 18.248C147.486 18.424 148.334 18.632 149.662 18.872C151.006 19.096 151.958 19.456 152.518 19.952C153.078 20.448 153.358 21.328 153.358 22.592C153.358 23.856 152.95 24.784 152.134 25.376C151.334 25.968 150.158 26.264 148.606 26.264C147.63 26.264 146.398 26.128 144.91 25.856L144.166 25.736L144.262 23.552C146.182 23.808 147.566 23.936 148.414 23.936C149.262 23.936 149.862 23.832 150.214 23.624C150.582 23.416 150.766 23.072 150.766 22.592C150.766 22.112 150.59 21.784 150.238 21.608C149.902 21.416 149.078 21.216 147.766 21.008C146.47 20.784 145.518 20.44 144.91 19.976C144.302 19.512 143.998 18.664 143.998 17.432C143.998 16.2 144.414 15.28 145.246 14.672C146.094 14.064 147.174 13.76 148.486 13.76C149.51 13.76 150.766 13.888 152.254 14.144L152.998 14.288L152.95 16.472Z" fill="#0B71C9"/>
    <path d="M165.376 23.84L166.048 23.768L166.096 25.712C164.272 26.08 162.656 26.264 161.248 26.264C159.472 26.264 158.192 25.776 157.408 24.8C156.64 23.824 156.256 22.264 156.256 20.12C156.256 15.864 157.992 13.736 161.464 13.736C164.824 13.736 166.504 15.568 166.504 19.232L166.336 21.104H158.896C158.912 22.096 159.128 22.824 159.544 23.288C159.96 23.752 160.736 23.984 161.872 23.984C163.008 23.984 164.176 23.936 165.376 23.84ZM163.936 19.088C163.936 17.904 163.744 17.08 163.36 16.616C162.992 16.136 162.36 15.896 161.464 15.896C160.568 15.896 159.912 16.144 159.496 16.64C159.096 17.136 158.888 17.952 158.872 19.088H163.936Z" fill="#0B71C9"/>
    <path d="M18.6631 27.6384H6.41306C4.98504 27.6402 3.59738 27.1648 2.47054 26.2876C1.34372 25.4104 0.542346 24.1818 0.193761 22.797C-0.154824 21.412 -0.030628 19.9505 0.546616 18.6444C1.12386 17.3382 2.12104 16.2624 3.37972 15.5879C2.689 14.2661 2.32872 12.7965 2.32972 11.3051C2.33666 9.01644 3.18426 6.8101 4.71142 5.10548C6.2386 3.40084 8.33886 2.31676 10.613 2.05928C12.8871 1.80179 15.1766 2.38886 17.0462 3.7089C18.9158 5.02894 20.2352 6.98992 20.7538 9.2191C22.9788 9.74168 24.9348 11.0626 26.2508 12.9313C27.5668 14.8001 28.1514 17.0868 27.8936 19.3578C27.6358 21.6288 26.5536 23.7264 24.8522 25.2526C23.151 26.7788 20.9486 27.6278 18.6631 27.6384ZM11.6631 4.3051C9.80712 4.30694 8.02772 5.04504 6.71536 6.3574C5.403 7.66974 4.66492 9.44914 4.66306 11.3051C4.6612 12.803 5.14506 14.2611 6.04206 15.4608L7.07106 16.8526L5.39572 17.2854C4.43294 17.5306 3.593 18.1193 3.03396 18.9406C2.47494 19.7619 2.2354 20.7592 2.36042 21.7448C2.48546 22.7304 2.96644 23.6364 3.71284 24.292C4.45922 24.9478 5.41956 25.308 6.41306 25.305H18.6631C20.4268 25.288 22.1188 24.6056 23.4012 23.3946C24.6834 22.1836 25.4614 20.5332 25.5794 18.7735C25.6972 17.0137 25.1466 15.2742 24.0372 13.903C22.928 12.5317 21.342 11.6297 19.5964 11.3774L18.7132 11.2608L18.5966 10.3764C18.3694 8.69756 17.542 7.15772 16.2674 6.04162C14.9928 4.92554 13.3572 4.30868 11.6631 4.3051Z" fill="#0B71C9"/>
    <path d="M43.6602 18C43.66 18.5597 43.4368 19.0964 43.041 19.4922C42.6452 19.8879 42.1086 20.1112 41.5488 20.1114H38.8086C38.7594 20.1116 38.7138 20.1454 38.7012 20.1914L36.8398 27.125L36.834 27.1426L36.83 27.1582C36.4934 28.2602 35.52 28.996 34.3828 28.996H34.3594C33.8074 28.9926 33.2702 28.8102 32.832 28.4746C32.394 28.139 32.077 27.6686 31.9296 27.1368L31.9238 27.1114L29.1914 16.0781L26.6894 24.9356L26.6856 24.9512L26.6796 24.9688C26.345 26.014 25.4416 26.7218 24.3574 26.7696L24.3594 26.7714C23.2296 26.8324 22.2896 26.1726 21.8868 25.1972L21.879 25.1758L21.8692 25.1524L20.0918 20.1836C20.0834 20.1632 20.069 20.1436 20.0508 20.1308C20.0314 20.1172 20.0082 20.1094 19.9844 20.1094H17.1113C16.5515 20.1094 16.015 19.8861 15.6191 19.4902C15.2233 19.0944 15 18.5579 15 17.998C15.0002 17.4384 15.2234 16.9016 15.6191 16.5059C16.0149 16.1104 16.5518 15.8887 17.1113 15.8887H19.9883C21.8052 15.8887 23.4324 17.0292 24.0566 18.7324L26.8536 8.83983L26.8594 8.82225L26.8652 8.80663C27.2104 7.73347 28.1672 6.95067 29.371 7.00195L29.3692 7.00389C29.9074 7.01697 30.4282 7.19873 30.8554 7.52733C31.2896 7.86149 31.6042 8.32787 31.752 8.85545L31.7558 8.87109L31.7598 8.88475L34.4472 19.7441L34.623 19.0977C34.871 18.1778 35.416 17.363 36.1718 16.7832C36.9278 16.2036 37.8542 15.8898 38.8066 15.8887H41.5468C42.1064 15.8888 42.6434 16.1102 43.039 16.5059C43.2704 16.7373 43.44 17.018 43.543 17.3223L43.6602 17.3809V18Z" fill="#F2B705" stroke="white"/>
</svg>
