<svg width="56" height="55" viewBox="0 0 56 55" fill="none" xmlns="http://www.w3.org/2000/svg">
    <path opacity="0.4" d="M39.2706 27.4161C39.2537 33.6293 34.2031 38.6662 27.99 38.6662C21.7768 38.6662 16.7537 33.6293 16.7706 27.4161C16.7875 21.2028 21.8381 16.166 28.0513 16.166C34.2644 16.166 39.2875 21.2028 39.2706 27.4161Z" fill="#F3CC0B"/>
    <path d="M39.2706 27.4161C39.2537 33.6293 34.2031 38.6662 27.99 38.6662C21.7768 38.6662 16.7537 33.6293 16.7706 27.4161C16.7875 21.2028 21.8381 16.166 28.0513 16.166C34.2644 16.166 39.2875 21.2028 39.2706 27.4161Z" stroke="#F3CC0B" stroke-width="1.5"/>
    <path d="M28.0657 7.16586H28.0859M27.9567 47.6663H27.9769M42.3669 13.0969H42.3872M13.6583 41.7352H13.6785M13.7363 13.098H13.7565M42.2876 41.7364H42.3078M48.2503 27.4174H48.2706M7.77064 27.4174H7.79085" stroke="#F3CC0B" stroke-width="1.5" stroke-linecap="round" stroke-linejoin="round"/>
</svg>
