<svg width="80" height="80" viewBox="0 0 80 80" fill="none" xmlns="http://www.w3.org/2000/svg">
    <path opacity="0.4" d="M58.3333 73.3333C65.697 73.3333 71.6667 67.3636 71.6667 60C71.6667 56.445 70.2757 53.2153 68.008 50.825C66.319 49.0446 65.4743 48.1543 65.2373 47.5596C65 46.965 65 46.1783 65 44.605V13.3333C65 9.65139 62.0153 6.66663 58.3333 6.66663C54.6513 6.66663 51.6667 9.65139 51.6667 13.3333V44.605C51.6667 46.1783 51.6667 46.965 51.4293 47.5596C51.1923 48.1543 50.3477 49.0446 48.6587 50.825C46.391 53.2153 45 56.445 45 60C45 67.3636 50.9697 73.3333 58.3333 73.3333Z" fill="#6797CF"/>
    <path d="M58.3333 73.3333C65.697 73.3333 71.6667 67.3636 71.6667 60C71.6667 56.445 70.2757 53.2153 68.008 50.825C66.319 49.0446 65.4743 48.1543 65.2373 47.5596C65 46.965 65 46.1783 65 44.605V13.3333C65 9.65139 62.0153 6.66663 58.3333 6.66663C54.6513 6.66663 51.6667 9.65139 51.6667 13.3333V44.605C51.6667 46.1783 51.6667 46.965 51.4293 47.5596C51.1923 48.1543 50.3477 49.0446 48.6587 50.825C46.391 53.2153 45 56.445 45 60C45 67.3636 50.9697 73.3333 58.3333 73.3333Z" stroke="#0066DB" stroke-width="2" stroke-linecap="round" stroke-linejoin="round"/>
    <path d="M30.1515 16.6666V28.8541M30.1515 28.8541V47.8126M30.1515 28.8541L36.9697 22.0833M30.1515 28.8541L23.3334 22.0833M30.1515 47.8126L30.1516 60M30.1515 47.8126L23.3334 54.5833M30.1515 47.8126L36.9697 54.5833M13.7879 31.5625L20.6061 38.3333M20.6061 38.3333L13.7879 45.104M20.6061 38.3333H38.3334M20.6061 38.3333H8.33337" stroke="#0066DB" stroke-width="2" stroke-linecap="round" stroke-linejoin="round"/>
</svg>
