<svg width="81" height="80" viewBox="0 0 81 80" fill="none" xmlns="http://www.w3.org/2000/svg">
    <path opacity="0.4" d="M57.4166 40C57.4166 49.2047 49.9546 56.6667 40.75 56.6667C31.5452 56.6667 24.0833 49.2047 24.0833 40C24.0833 30.7953 31.5452 23.3333 40.75 23.3333C49.9546 23.3333 57.4166 30.7953 57.4166 40Z" fill="#CE7425"/>
    <path d="M57.4166 40C57.4166 49.2047 49.9546 56.6667 40.75 56.6667C31.5452 56.6667 24.0833 49.2047 24.0833 40C24.0833 30.7953 31.5452 23.3333 40.75 23.3333C49.9546 23.3333 57.4166 30.7953 57.4166 40Z" stroke="#CE7425" stroke-width="2"/>
    <path d="M40.75 6.66666V11.6667M40.75 68.3333V73.3333M64.3194 63.571L60.7837 60.0353M20.7142 19.9642L17.1787 16.4287M74.0834 40H69.0834M12.4167 40H7.41669M64.321 16.429L60.7853 19.9646M20.7159 60.0357L17.1803 63.5713" stroke="#CE7425" stroke-width="2" stroke-linecap="round"/>
</svg>
