<svg width="80" height="80" viewBox="0 0 80 80" fill="none" xmlns="http://www.w3.org/2000/svg">
    <path opacity="0.4" d="M55 73.3333C62.3637 73.3333 68.3333 67.3637 68.3333 60C68.3333 56.445 66.9423 53.2153 64.6747 50.825C62.9857 49.0447 62.141 48.1543 61.904 47.5597C61.6667 46.965 61.6667 46.1783 61.6667 44.605V13.3333C61.6667 9.65142 58.682 6.66666 55 6.66666C51.318 6.66666 48.3333 9.65142 48.3333 13.3333V44.605C48.3333 46.1783 48.3333 46.965 48.096 47.5597C47.859 48.1543 47.0143 49.0447 45.3253 50.825C43.0577 53.2153 41.6667 56.445 41.6667 60C41.6667 67.3637 47.6363 73.3333 55 73.3333Z" fill="#E89F00"/>
    <path d="M55.0003 73.3333C62.364 73.3333 68.3336 67.3637 68.3336 60C68.3336 56.445 66.9423 53.2153 64.6746 50.825C62.9856 49.0447 62.1413 48.1543 61.904 47.5597C61.667 46.965 61.667 46.1783 61.667 44.605V13.3333C61.667 9.65142 58.682 6.66666 55.0003 6.66666C51.3183 6.66666 48.3336 9.65142 48.3336 13.3333V44.605C48.3336 46.1783 48.3336 46.965 48.0963 47.5597C47.859 48.1543 47.0146 49.0447 45.3256 50.825C43.058 53.2153 41.667 56.445 41.667 60C41.667 67.3637 47.6363 73.3333 55.0003 73.3333Z" stroke="#E89F00" stroke-width="2" stroke-linecap="round" stroke-linejoin="round"/>
    <path d="M34.3777 52.7677C28.9264 51.8053 24.5443 47.0133 24.0111 40.869C23.3791 33.5867 28.3935 27.162 35.2113 26.5196C36.2767 26.4192 37.3233 26.466 38.3333 26.6442M34.067 13.3333L34.41 17.2892M20.14 25.2524L17.2786 22.7019M15.37 41.6833L11.6667 42.0323M22.8925 56.956L20.5166 60" stroke="#E89F00" stroke-width="2" stroke-linecap="round"/>
</svg>
